<svg xmlns="http://www.w3.org/2000/svg" xmlns:xlink="http://www.w3.org/1999/xlink" width="1920" zoomAndPan="magnify" viewBox="0 0 1440 809.999993" height="1080" preserveAspectRatio="xMidYMid meet" version="1.0"><defs><g/><clipPath id="id1"><path d="M 977.003906 663.992188 L 1358.753906 663.992188 L 1358.753906 729.242188 L 977.003906 729.242188 Z M 977.003906 663.992188 " clip-rule="nonzero"/></clipPath></defs><rect x="-144" width="1728" fill="#ffffff" y="-80.999999" height="971.999992" fill-opacity="1"/><rect x="-144" width="1728" fill="#242424" y="-80.999999" height="971.999992" fill-opacity="1"/><rect x="-144" width="1728" fill="#ffffff" y="-80.999999" height="971.999992" fill-opacity="1"/><rect x="-144" width="1728" fill="#242424" y="-80.999999" height="971.999992" fill-opacity="1"/><g fill="#f4f0e6" fill-opacity="1"><g transform="translate(81.000002, 310.486089)"><g><path d="M 16.074219 0 L 16.074219 -1.222656 C 12.125 -1.222656 9.304688 -3.476562 10.996094 -7.519531 L 17.203125 -22.464844 L 44.273438 -22.464844 L 49.628906 -9.398438 C 51.511719 -4.886719 51.230469 -1.222656 46.339844 -1.222656 L 43.804688 -1.222656 L 43.804688 0 L 70.214844 0 L 70.214844 -1.222656 C 65.515625 -1.222656 62.601562 -3.289062 59.96875 -9.492188 L 35.25 -68.523438 L 18.800781 -68.523438 L 18.800781 -67.300781 C 22.558594 -67.300781 25.941406 -66.363281 27.449219 -62.601562 L 30.078125 -56.210938 L 9.585938 -7.144531 C 8.179688 -3.761719 4.511719 -1.222656 1.410156 -1.222656 L 1.410156 0 Z M 30.738281 -54.800781 L 43.707031 -23.6875 L 17.765625 -23.6875 Z M 30.738281 -54.800781 "/></g></g></g><g fill="#f4f0e6" fill-opacity="1"><g transform="translate(152.624987, 310.486089)"><g><path d="M 3.101562 -50.757812 C 5.453125 -63.355469 12.691406 -67.300781 22.746094 -67.300781 L 29.609375 -67.300781 L 29.609375 -6.296875 C 29.609375 -1.972656 27.636719 -1.222656 23.125 -1.222656 L 23.125 0 L 46.527344 0 L 46.527344 -1.222656 C 42.015625 -1.222656 39.949219 -1.972656 39.949219 -6.296875 L 39.949219 -67.300781 L 46.714844 -67.300781 C 56.867188 -67.300781 64.105469 -63.355469 66.457031 -50.757812 L 67.679688 -50.757812 L 64.578125 -68.523438 L 4.980469 -68.523438 L 1.878906 -50.757812 Z M 3.101562 -50.757812 "/></g></g></g><g fill="#f4f0e6" fill-opacity="1"><g transform="translate(222.182059, 310.486089)"><g><path d="M 2.351562 -67.300781 C 6.484375 -67.300781 8.554688 -66.925781 10.152344 -64.386719 L 10.152344 -6.390625 C 10.152344 -1.410156 7.988281 -1.222656 3.476562 -1.222656 L 3.476562 0 L 18.046875 0 L 18.046875 -1.222656 C 13.628906 -1.222656 11.46875 -1.410156 11.375 -6.109375 L 11.375 -61.945312 C 11.46875 -61.757812 11.5625 -61.472656 11.65625 -61.285156 L 35.25 0 L 36.566406 0 L 60.816406 -64.859375 L 60.816406 -6.390625 C 60.816406 -1.410156 58.65625 -1.222656 54.140625 -1.222656 L 54.140625 0 L 77.828125 0 L 77.828125 -1.222656 C 73.316406 -1.222656 71.15625 -1.410156 71.15625 -6.390625 L 71.15625 -62.507812 C 71.25 -67.113281 73.410156 -67.300781 77.828125 -67.300781 L 77.828125 -68.523438 L 60.816406 -68.523438 L 40.699219 -14.664062 L 19.644531 -68.523438 L 2.351562 -68.523438 Z M 2.351562 -67.300781 "/></g></g></g><g fill="#f4f0e6" fill-opacity="1"><g transform="translate(302.830664, 310.486089)"><g><path d="M 4.699219 -34.402344 C 4.699219 -14.757812 19.738281 1.128906 38.351562 1.128906 C 56.960938 1.128906 72.285156 -14.757812 72.285156 -34.402344 C 72.285156 -53.953125 56.960938 -69.558594 38.351562 -69.558594 C 19.738281 -69.558594 4.699219 -53.953125 4.699219 -34.402344 Z M 37.410156 -68.242188 C 54.238281 -68.242188 61.003906 -50.851562 61.003906 -33.367188 C 61.003906 -15.320312 54.332031 -0.1875 39.289062 -0.1875 C 22.933594 -0.1875 15.980469 -17.296875 15.980469 -35.4375 C 15.980469 -52.828125 23.21875 -68.242188 37.410156 -68.242188 Z M 37.410156 -68.242188 "/></g></g></g><g fill="#f4f0e6" fill-opacity="1"><g transform="translate(379.813418, 310.486089)"><g><path d="M 4.699219 0 L 5.921875 0 C 5.921875 -2.351562 7.519531 -3.289062 10.246094 -3.289062 C 14.757812 -3.289062 17.859375 1.128906 28.105469 1.128906 C 43.992188 1.128906 48.972656 -6.769531 48.972656 -16.355469 C 48.972656 -36.472656 15.132812 -39.480469 15.132812 -57.902344 C 15.132812 -63.355469 18.140625 -67.394531 25.660156 -67.394531 C 36.09375 -67.394531 43.992188 -58.9375 43.992188 -46.339844 L 45.210938 -46.339844 L 45.210938 -68.523438 L 43.992188 -68.523438 C 43.992188 -65.703125 43.238281 -64.765625 40.792969 -64.765625 C 36.941406 -64.765625 33.933594 -69.558594 24.34375 -69.558594 C 15.132812 -69.558594 4.792969 -64.292969 4.792969 -53.390625 C 4.792969 -35.25 39.574219 -28.105469 39.574219 -12.5 C 39.574219 -4.136719 33.558594 -1.222656 26.507812 -1.222656 C 14.945312 -1.222656 5.921875 -9.398438 5.921875 -28.199219 L 4.699219 -28.199219 Z M 4.699219 0 "/></g></g></g><g fill="#f4f0e6" fill-opacity="1"><g transform="translate(432.545204, 310.486089)"><g><path d="M 26.226562 0 L 26.226562 -1.128906 C 21.808594 -1.128906 19.738281 -1.878906 19.738281 -6.109375 L 19.738281 -35.34375 L 30.644531 -35.34375 C 40.136719 -35.34375 41.453125 -31.582031 41.453125 -19.832031 L 42.675781 -19.832031 L 42.675781 -50.945312 L 41.453125 -50.945312 C 41.453125 -40.417969 40.136719 -36.660156 30.644531 -36.566406 L 19.738281 -36.566406 L 19.738281 -67.300781 L 30.832031 -67.300781 C 40.699219 -67.113281 47.28125 -66.363281 52.261719 -53.578125 L 53.484375 -53.578125 L 48.503906 -68.523438 L 2.820312 -68.523438 L 2.820312 -67.300781 C 7.332031 -67.300781 9.304688 -66.550781 9.304688 -62.226562 L 9.304688 -6.296875 C 9.304688 -1.972656 7.332031 -1.222656 2.820312 -1.222656 L 2.820312 0 Z M 26.226562 0 "/></g></g></g><g fill="#f4f0e6" fill-opacity="1"><g transform="translate(488.378843, 310.486089)"><g><path d="M 2.820312 0 L 53.671875 0 L 60.347656 -26.976562 L 59.125 -26.976562 C 54.800781 -12.59375 48.410156 -1.222656 32.335938 -1.222656 C 22.746094 -1.222656 19.738281 -1.972656 19.738281 -6.296875 L 19.738281 -35.34375 L 30.550781 -35.34375 C 41.359375 -35.34375 41.359375 -29.421875 41.359375 -19.832031 L 42.582031 -19.832031 L 42.582031 -50.945312 L 41.359375 -50.945312 C 41.359375 -41.453125 40.699219 -36.660156 30.550781 -36.566406 L 19.738281 -36.566406 L 19.738281 -62.226562 C 19.738281 -66.644531 23.59375 -67.207031 37.128906 -67.207031 C 47.75 -67.207031 51.699219 -64.386719 55.175781 -53.671875 L 56.398438 -53.671875 L 51.417969 -68.523438 L 2.820312 -68.523438 L 2.820312 -67.300781 C 7.332031 -67.300781 9.304688 -66.644531 9.304688 -62.226562 L 9.398438 -5.359375 C 9.023438 -1.878906 6.957031 -1.222656 2.820312 -1.222656 Z M 2.820312 0 "/></g></g></g><g fill="#f4f0e6" fill-opacity="1"><g transform="translate(551.168222, 310.486089)"><g><path d="M 2.820312 0 L 26.132812 0 L 26.132812 -1.222656 C 21.621094 -1.222656 19.644531 -1.972656 19.644531 -6.296875 L 19.644531 -34.683594 L 27.824219 -34.683594 L 44.273438 -10.808594 C 47.84375 -5.640625 52.167969 0 59.96875 0 L 69.277344 0 L 69.277344 -1.222656 C 65.703125 -1.222656 62.601562 -2.257812 59.78125 -6.296875 L 42.863281 -30.832031 C 41.453125 -29.703125 39.761719 -29.046875 37.976562 -29.046875 C 34.96875 -29.046875 31.675781 -30.832031 29.234375 -34.683594 L 33.179688 -34.683594 C 44.179688 -34.683594 57.902344 -37.035156 57.902344 -51.792969 C 57.902344 -66.832031 43.425781 -68.523438 29.515625 -68.523438 L 2.820312 -68.523438 L 2.820312 -67.300781 C 7.238281 -67.300781 9.304688 -66.644531 9.304688 -62.226562 L 9.304688 -6.296875 C 9.304688 -1.972656 7.238281 -1.222656 2.820312 -1.222656 Z M 19.644531 -35.90625 L 19.644531 -67.300781 L 31.394531 -67.300781 C 41.828125 -67.300781 47.65625 -61.851562 47.65625 -51.699219 C 47.65625 -39.101562 39.574219 -35.90625 29.609375 -35.90625 Z M 19.644531 -35.90625 "/></g></g></g><g fill="#f4f0e6" fill-opacity="1"><g transform="translate(621.383261, 310.486089)"><g><path d="M 9.304688 -6.296875 C 9.304688 -1.878906 7.332031 -1.222656 2.820312 -1.222656 L 2.820312 0 L 26.226562 0 L 26.132812 -1.222656 C 21.714844 -1.222656 19.644531 -1.878906 19.644531 -6.296875 L 19.644531 -62.226562 C 19.644531 -66.644531 21.714844 -67.300781 26.226562 -67.300781 L 26.226562 -68.523438 L 2.820312 -68.523438 L 2.820312 -67.300781 C 7.332031 -67.300781 9.304688 -66.644531 9.304688 -62.226562 Z M 9.304688 -6.296875 "/></g></g></g><g fill="#f4f0e6" fill-opacity="1"><g transform="translate(650.428044, 310.486089)"><g><path d="M 37.597656 1.128906 C 55.269531 1.128906 62.882812 -12.03125 62.882812 -25.191406 L 61.664062 -25.191406 C 61.664062 -14.101562 55.550781 -3.949219 42.015625 -3.949219 C 25.753906 -3.949219 15.980469 -17.671875 15.980469 -37.316406 C 15.980469 -56.960938 26.226562 -67.300781 38.820312 -67.300781 C 50.007812 -67.300781 56.773438 -60.722656 56.773438 -44.929688 L 57.902344 -44.929688 L 57.902344 -68.523438 L 56.679688 -68.523438 C 56.679688 -65.984375 55.269531 -65.421875 54.140625 -65.421875 C 51.039062 -65.421875 47 -69.558594 37.976562 -69.558594 C 17.109375 -69.558594 4.699219 -53.203125 4.699219 -32.804688 C 4.699219 -13.160156 18.234375 1.128906 37.597656 1.128906 Z M 37.597656 1.128906 "/></g></g></g><g fill="#f4f0e6" fill-opacity="1"><g transform="translate(81.000002, 422.986084)"><g><path d="M 4.699219 0 L 5.921875 0 C 5.921875 -2.351562 7.519531 -3.289062 10.246094 -3.289062 C 14.757812 -3.289062 17.859375 1.128906 28.105469 1.128906 C 43.992188 1.128906 48.972656 -6.769531 48.972656 -16.355469 C 48.972656 -36.472656 15.132812 -39.480469 15.132812 -57.902344 C 15.132812 -63.355469 18.140625 -67.394531 25.660156 -67.394531 C 36.09375 -67.394531 43.992188 -58.9375 43.992188 -46.339844 L 45.210938 -46.339844 L 45.210938 -68.523438 L 43.992188 -68.523438 C 43.992188 -65.703125 43.238281 -64.765625 40.792969 -64.765625 C 36.941406 -64.765625 33.933594 -69.558594 24.34375 -69.558594 C 15.132812 -69.558594 4.792969 -64.292969 4.792969 -53.390625 C 4.792969 -35.25 39.574219 -28.105469 39.574219 -12.5 C 39.574219 -4.136719 33.558594 -1.222656 26.507812 -1.222656 C 14.945312 -1.222656 5.921875 -9.398438 5.921875 -28.199219 L 4.699219 -28.199219 Z M 4.699219 0 "/></g></g></g><g fill="#f4f0e6" fill-opacity="1"><g transform="translate(133.731788, 422.986084)"><g><path d="M 9.304688 -6.296875 C 9.304688 -1.878906 7.332031 -1.222656 2.820312 -1.222656 L 2.820312 0 L 26.226562 0 L 26.132812 -1.222656 C 21.714844 -1.222656 19.644531 -1.878906 19.644531 -6.296875 L 19.644531 -62.226562 C 19.644531 -66.644531 21.714844 -67.300781 26.226562 -67.300781 L 26.226562 -68.523438 L 2.820312 -68.523438 L 2.820312 -67.300781 C 7.332031 -67.300781 9.304688 -66.644531 9.304688 -62.226562 Z M 9.304688 -6.296875 "/></g></g></g><g fill="#f4f0e6" fill-opacity="1"><g transform="translate(162.776571, 422.986084)"><g><path d="M 2.351562 -67.300781 C 6.484375 -67.300781 8.554688 -66.925781 10.152344 -64.386719 L 10.152344 -6.390625 C 10.152344 -1.410156 7.988281 -1.222656 3.476562 -1.222656 L 3.476562 0 L 18.046875 0 L 18.046875 -1.222656 C 13.628906 -1.222656 11.46875 -1.410156 11.375 -6.109375 L 11.375 -61.945312 C 11.46875 -61.757812 11.5625 -61.472656 11.65625 -61.285156 L 35.25 0 L 36.566406 0 L 60.816406 -64.859375 L 60.816406 -6.390625 C 60.816406 -1.410156 58.65625 -1.222656 54.140625 -1.222656 L 54.140625 0 L 77.828125 0 L 77.828125 -1.222656 C 73.316406 -1.222656 71.15625 -1.410156 71.15625 -6.390625 L 71.15625 -62.507812 C 71.25 -67.113281 73.410156 -67.300781 77.828125 -67.300781 L 77.828125 -68.523438 L 60.816406 -68.523438 L 40.699219 -14.664062 L 19.644531 -68.523438 L 2.351562 -68.523438 Z M 2.351562 -67.300781 "/></g></g></g><g fill="#f4f0e6" fill-opacity="1"><g transform="translate(243.425176, 422.986084)"><g><path d="M 3.761719 -67.300781 C 8.273438 -67.300781 10.433594 -66.738281 10.433594 -61.664062 L 10.433594 -24.4375 C 10.433594 -9.777344 16.636719 1.128906 36.660156 1.128906 C 58.65625 1.128906 60.535156 -14.757812 60.535156 -23.78125 L 60.535156 -61.664062 C 60.535156 -66.738281 63.730469 -67.300781 67.207031 -67.300781 L 67.207031 -68.523438 L 52.636719 -68.523438 L 52.636719 -67.300781 C 56.867188 -67.300781 59.03125 -66.738281 59.3125 -62.601562 L 59.3125 -23.78125 C 59.3125 -5.921875 50.851562 -1.035156 38.914062 -1.035156 C 27.636719 -1.035156 20.773438 -8.742188 20.773438 -24.4375 L 20.773438 -61.664062 C 20.773438 -66.738281 22.933594 -67.300781 27.449219 -67.300781 L 27.449219 -68.523438 L 3.761719 -68.523438 Z M 3.761719 -67.300781 "/></g></g></g><g fill="#f4f0e6" fill-opacity="1"><g transform="translate(312.98226, 422.986084)"><g><path d="M 2.820312 -67.300781 C 7.332031 -67.300781 9.304688 -66.550781 9.304688 -62.226562 L 9.304688 -5.265625 C 9.023438 -1.222656 6.957031 -1.222656 2.820312 -1.222656 L 2.820312 0 L 53.671875 0 L 60.347656 -26.976562 L 59.125 -26.976562 C 54.800781 -12.59375 48.410156 -1.222656 32.335938 -1.222656 C 22.746094 -1.222656 19.738281 -1.691406 19.738281 -6.203125 L 19.738281 -62.226562 C 19.738281 -66.550781 21.714844 -67.300781 26.226562 -67.300781 L 26.226562 -68.523438 L 2.820312 -68.523438 Z M 2.820312 -67.300781 "/></g></g></g><g fill="#f4f0e6" fill-opacity="1"><g transform="translate(375.677615, 422.986084)"><g><path d="M 16.074219 0 L 16.074219 -1.222656 C 12.125 -1.222656 9.304688 -3.476562 10.996094 -7.519531 L 17.203125 -22.464844 L 44.273438 -22.464844 L 49.628906 -9.398438 C 51.511719 -4.886719 51.230469 -1.222656 46.339844 -1.222656 L 43.804688 -1.222656 L 43.804688 0 L 70.214844 0 L 70.214844 -1.222656 C 65.515625 -1.222656 62.601562 -3.289062 59.96875 -9.492188 L 35.25 -68.523438 L 18.800781 -68.523438 L 18.800781 -67.300781 C 22.558594 -67.300781 25.941406 -66.363281 27.449219 -62.601562 L 30.078125 -56.210938 L 9.585938 -7.144531 C 8.179688 -3.761719 4.511719 -1.222656 1.410156 -1.222656 L 1.410156 0 Z M 30.738281 -54.800781 L 43.707031 -23.6875 L 17.765625 -23.6875 Z M 30.738281 -54.800781 "/></g></g></g><g fill="#f4f0e6" fill-opacity="1"><g transform="translate(447.302612, 422.986084)"><g><path d="M 3.101562 -50.757812 C 5.453125 -63.355469 12.691406 -67.300781 22.746094 -67.300781 L 29.609375 -67.300781 L 29.609375 -6.296875 C 29.609375 -1.972656 27.636719 -1.222656 23.125 -1.222656 L 23.125 0 L 46.527344 0 L 46.527344 -1.222656 C 42.015625 -1.222656 39.949219 -1.972656 39.949219 -6.296875 L 39.949219 -67.300781 L 46.714844 -67.300781 C 56.867188 -67.300781 64.105469 -63.355469 66.457031 -50.757812 L 67.679688 -50.757812 L 64.578125 -68.523438 L 4.980469 -68.523438 L 1.878906 -50.757812 Z M 3.101562 -50.757812 "/></g></g></g><g fill="#f4f0e6" fill-opacity="1"><g transform="translate(516.859661, 422.986084)"><g><path d="M 4.699219 -34.402344 C 4.699219 -14.757812 19.738281 1.128906 38.351562 1.128906 C 56.960938 1.128906 72.285156 -14.757812 72.285156 -34.402344 C 72.285156 -53.953125 56.960938 -69.558594 38.351562 -69.558594 C 19.738281 -69.558594 4.699219 -53.953125 4.699219 -34.402344 Z M 37.410156 -68.242188 C 54.238281 -68.242188 61.003906 -50.851562 61.003906 -33.367188 C 61.003906 -15.320312 54.332031 -0.1875 39.289062 -0.1875 C 22.933594 -0.1875 15.980469 -17.296875 15.980469 -35.4375 C 15.980469 -52.828125 23.21875 -68.242188 37.410156 -68.242188 Z M 37.410156 -68.242188 "/></g></g></g><g fill="#f4f0e6" fill-opacity="1"><g transform="translate(593.842415, 422.986084)"><g><path d="M 2.820312 0 L 26.132812 0 L 26.132812 -1.222656 C 21.621094 -1.222656 19.644531 -1.972656 19.644531 -6.296875 L 19.644531 -34.683594 L 27.824219 -34.683594 L 44.273438 -10.808594 C 47.84375 -5.640625 52.167969 0 59.96875 0 L 69.277344 0 L 69.277344 -1.222656 C 65.703125 -1.222656 62.601562 -2.257812 59.78125 -6.296875 L 42.863281 -30.832031 C 41.453125 -29.703125 39.761719 -29.046875 37.976562 -29.046875 C 34.96875 -29.046875 31.675781 -30.832031 29.234375 -34.683594 L 33.179688 -34.683594 C 44.179688 -34.683594 57.902344 -37.035156 57.902344 -51.792969 C 57.902344 -66.832031 43.425781 -68.523438 29.515625 -68.523438 L 2.820312 -68.523438 L 2.820312 -67.300781 C 7.238281 -67.300781 9.304688 -66.644531 9.304688 -62.226562 L 9.304688 -6.296875 C 9.304688 -1.972656 7.238281 -1.222656 2.820312 -1.222656 Z M 19.644531 -35.90625 L 19.644531 -67.300781 L 31.394531 -67.300781 C 41.828125 -67.300781 47.65625 -61.851562 47.65625 -51.699219 C 47.65625 -39.101562 39.574219 -35.90625 29.609375 -35.90625 Z M 19.644531 -35.90625 "/></g></g></g><g fill="#7ed957" fill-opacity="1"><g transform="translate(81.000002, 104.075016)"><g><path d="M 13.75 -5.457031 L 13.75 -16.488281 L 12.050781 -16.488281 L 12.050781 -5.214844 C 12.050781 -4.535156 11.929688 -3.976562 11.6875 -3.515625 C 10.984375 -2.15625 9.625 -1.480469 7.613281 -1.480469 C 6.304688 -1.480469 5.261719 -1.769531 4.484375 -2.351562 C 3.589844 -3.007812 3.152344 -3.953125 3.152344 -5.214844 L 3.152344 -16.488281 L 1.453125 -16.488281 L 1.453125 -5.457031 C 1.453125 -3.660156 2.035156 -2.253906 3.199219 -1.238281 C 4.292969 -0.265625 5.769531 0.21875 7.613281 0.21875 C 9.433594 0.21875 10.886719 -0.265625 12.003906 -1.238281 C 13.167969 -2.253906 13.75 -3.660156 13.75 -5.457031 Z M 13.75 -5.457031 "/></g></g></g><g fill="#7ed957" fill-opacity="1"><g transform="translate(99.112296, 104.075016)"><g><path d="M 3.515625 -12.148438 L 12.777344 1.019531 L 12.777344 -16.488281 L 11.082031 -16.488281 L 11.082031 -4.363281 L 1.820312 -17.53125 L 1.820312 0 L 3.515625 0 Z M 3.515625 -12.148438 "/></g></g></g><g fill="#7ed957" fill-opacity="1"><g transform="translate(116.618443, 104.075016)"><g><path d="M 3.515625 0 L 3.515625 -16.488281 L 1.820312 -16.488281 L 1.820312 0 Z M 3.515625 0 "/></g></g></g><g fill="#7ed957" fill-opacity="1"><g transform="translate(124.862578, 104.075016)"><g><path d="M 7.734375 0.996094 L 15.203125 -16.488281 L 13.359375 -16.488281 L 7.734375 -3.199219 L 2.085938 -16.488281 L 0.242188 -16.488281 Z M 7.734375 0.996094 "/></g></g></g><g fill="#7ed957" fill-opacity="1"><g transform="translate(143.217338, 104.075016)"><g><path d="M 11.613281 0 L 11.613281 -1.574219 L 3.515625 -1.574219 L 3.515625 -7.445312 L 11.371094 -7.445312 L 11.371094 -9.042969 L 3.515625 -9.042969 L 3.515625 -14.914062 L 11.613281 -14.914062 L 11.613281 -16.488281 L 1.820312 -16.488281 L 1.820312 0 Z M 11.613281 0 "/></g></g></g><g fill="#7ed957" fill-opacity="1"><g transform="translate(159.559677, 104.075016)"><g><path d="M 3.515625 -8.148438 L 3.515625 -14.863281 L 7.347656 -14.863281 C 8.339844 -14.863281 9.140625 -14.546875 9.746094 -13.917969 C 10.328125 -13.289062 10.644531 -12.511719 10.644531 -11.542969 C 10.644531 -10.570312 10.328125 -9.773438 9.699219 -9.117188 C 9.070312 -8.460938 8.292969 -8.148438 7.347656 -8.148438 Z M 12.34375 -11.515625 C 12.34375 -12.925781 11.808594 -14.136719 10.789062 -15.082031 C 9.796875 -16.003906 8.558594 -16.488281 7.105469 -16.488281 L 1.820312 -16.488281 L 1.820312 0 L 3.515625 0 L 3.515625 -6.523438 L 5.480469 -6.523438 L 10.328125 0 L 12.609375 0 L 7.515625 -6.523438 C 8.800781 -6.59375 9.894531 -7.054688 10.789062 -7.90625 C 11.808594 -8.851562 12.34375 -10.0625 12.34375 -11.515625 Z M 12.34375 -11.515625 "/></g></g></g><g fill="#7ed957" fill-opacity="1"><g transform="translate(175.659551, 104.075016)"><g><path d="M 6.378906 -7.757812 C 8.511719 -7.25 9.964844 -6.691406 10.742188 -6.0625 C 11.273438 -5.625 11.542969 -5.066406 11.542969 -4.390625 C 11.542969 -3.710938 11.394531 -3.152344 11.105469 -2.765625 C 10.378906 -1.746094 9.070312 -1.238281 7.226562 -1.238281 C 4.65625 -1.238281 3.199219 -2.109375 2.886719 -3.855469 L 0.898438 -3.855469 C 1.480469 -1.066406 3.589844 0.316406 7.226562 0.316406 C 8.851562 0.316406 10.207031 -0.0234375 11.300781 -0.75 C 12.609375 -1.601562 13.289062 -2.859375 13.289062 -4.511719 C 13.289062 -5.867188 12.753906 -6.910156 11.6875 -7.636719 C 10.9375 -8.171875 9.722656 -8.65625 8.050781 -9.09375 C 6.351562 -9.527344 5.261719 -9.894531 4.753906 -10.160156 C 3.636719 -10.71875 3.078125 -11.492188 3.105469 -12.511719 C 3.105469 -13.046875 3.199219 -13.503906 3.441406 -13.84375 C 4.074219 -14.789062 5.1875 -15.277344 6.789062 -15.277344 C 9.042969 -15.277344 10.328125 -14.546875 10.667969 -13.140625 L 12.511719 -13.140625 C 11.90625 -15.519531 9.988281 -16.730469 6.789062 -16.730469 C 5.335938 -16.730469 4.050781 -16.34375 2.984375 -15.566406 C 1.890625 -14.789062 1.332031 -13.652344 1.332031 -12.097656 C 1.332031 -9.988281 3.03125 -8.535156 6.378906 -7.757812 Z M 6.378906 -7.757812 "/></g></g></g><g fill="#7ed957" fill-opacity="1"><g transform="translate(192.486805, 104.075016)"><g><path d="M 3.515625 0 L 3.515625 -16.488281 L 1.820312 -16.488281 L 1.820312 0 Z M 3.515625 0 "/></g></g></g><g fill="#7ed957" fill-opacity="1"><g transform="translate(200.730934, 104.075016)"><g><path d="M 14.621094 -8.246094 C 14.621094 -9.433594 14.378906 -10.523438 13.941406 -11.542969 C 13.503906 -12.558594 12.898438 -13.433594 12.148438 -14.160156 C 11.371094 -14.886719 10.476562 -15.445312 9.457031 -15.859375 C 8.414062 -16.269531 7.296875 -16.488281 6.132812 -16.488281 L 1.820312 -16.488281 L 1.820312 0 L 6.132812 0 C 7.296875 0 8.414062 -0.195312 9.457031 -0.605469 C 10.476562 -1.019531 11.371094 -1.601562 12.148438 -2.328125 C 12.898438 -3.054688 13.503906 -3.902344 13.941406 -4.921875 C 14.378906 -5.941406 14.621094 -7.03125 14.621094 -8.246094 Z M 12.972656 -8.246094 C 12.972656 -6.351562 12.292969 -4.777344 10.984375 -3.539062 C 9.675781 -2.304688 8.074219 -1.699219 6.183594 -1.699219 L 3.515625 -1.699219 L 3.515625 -14.789062 L 6.183594 -14.789062 C 8.074219 -14.789062 9.675781 -14.160156 10.984375 -12.949219 C 12.292969 -11.6875 12.972656 -10.109375 12.972656 -8.246094 Z M 12.972656 -8.246094 "/></g></g></g><g fill="#7ed957" fill-opacity="1"><g transform="translate(219.352405, 104.075016)"><g><path d="M 4.484375 -6.0625 L 7.492188 -13.652344 L 10.476562 -6.0625 Z M 14.71875 0 L 7.492188 -17.628906 L 0.242188 0 L 2.085938 0 L 3.855469 -4.484375 L 11.105469 -4.484375 L 12.875 0 Z M 14.71875 0 "/></g></g></g><g fill="#7ed957" fill-opacity="1"><g transform="translate(237.222239, 104.075016)"><g><path d="M 14.621094 -8.246094 C 14.621094 -9.433594 14.378906 -10.523438 13.941406 -11.542969 C 13.503906 -12.558594 12.898438 -13.433594 12.148438 -14.160156 C 11.371094 -14.886719 10.476562 -15.445312 9.457031 -15.859375 C 8.414062 -16.269531 7.296875 -16.488281 6.132812 -16.488281 L 1.820312 -16.488281 L 1.820312 0 L 6.132812 0 C 7.296875 0 8.414062 -0.195312 9.457031 -0.605469 C 10.476562 -1.019531 11.371094 -1.601562 12.148438 -2.328125 C 12.898438 -3.054688 13.503906 -3.902344 13.941406 -4.921875 C 14.378906 -5.941406 14.621094 -7.03125 14.621094 -8.246094 Z M 12.972656 -8.246094 C 12.972656 -6.351562 12.292969 -4.777344 10.984375 -3.539062 C 9.675781 -2.304688 8.074219 -1.699219 6.183594 -1.699219 L 3.515625 -1.699219 L 3.515625 -14.789062 L 6.183594 -14.789062 C 8.074219 -14.789062 9.675781 -14.160156 10.984375 -12.949219 C 12.292969 -11.6875 12.972656 -10.109375 12.972656 -8.246094 Z M 12.972656 -8.246094 "/></g></g></g><g fill="#7ed957" fill-opacity="1"><g transform="translate(255.843698, 104.075016)"><g/></g></g><g fill="#7ed957" fill-opacity="1"><g transform="translate(265.300133, 104.075016)"><g><path d="M 3.515625 -12.148438 L 12.777344 1.019531 L 12.777344 -16.488281 L 11.082031 -16.488281 L 11.082031 -4.363281 L 1.820312 -17.53125 L 1.820312 0 L 3.515625 0 Z M 3.515625 -12.148438 "/></g></g></g><g fill="#7ed957" fill-opacity="1"><g transform="translate(282.806274, 104.075016)"><g><path d="M 4.484375 -6.0625 L 7.492188 -13.652344 L 10.476562 -6.0625 Z M 14.71875 0 L 7.492188 -17.628906 L 0.242188 0 L 2.085938 0 L 3.855469 -4.484375 L 11.105469 -4.484375 L 12.875 0 Z M 14.71875 0 "/></g></g></g><g fill="#7ed957" fill-opacity="1"><g transform="translate(300.676108, 104.075016)"><g><path d="M 16.949219 -5.042969 L 15.082031 -5.042969 C 14.5 -3.976562 13.699219 -3.105469 12.679688 -2.472656 C 11.664062 -1.820312 10.523438 -1.503906 9.3125 -1.503906 C 7.492188 -1.503906 5.941406 -2.15625 4.65625 -3.515625 C 3.394531 -4.800781 2.789062 -6.378906 2.789062 -8.21875 C 2.789062 -10.0625 3.394531 -11.640625 4.65625 -12.949219 C 5.238281 -13.554688 5.941406 -14.039062 6.742188 -14.402344 C 7.515625 -14.765625 8.292969 -14.960938 9.070312 -14.960938 C 9.820312 -14.960938 10.476562 -14.863281 11.058594 -14.695312 C 12.828125 -14.160156 14.160156 -13.09375 15.058594 -11.46875 L 16.925781 -11.46875 C 16.292969 -13.019531 15.300781 -14.28125 13.917969 -15.25 C 12.511719 -16.222656 10.984375 -16.707031 9.3125 -16.707031 C 7.007812 -16.707031 5.066406 -15.859375 3.46875 -14.183594 C 2.714844 -13.410156 2.132812 -12.488281 1.722656 -11.46875 C 1.285156 -10.449219 1.089844 -9.359375 1.089844 -8.21875 C 1.089844 -5.890625 1.867188 -3.929688 3.46875 -2.277344 C 5.066406 -0.582031 7.007812 0.242188 9.3125 0.242188 C 10.984375 0.242188 12.511719 -0.242188 13.941406 -1.210938 C 15.324219 -2.183594 16.320312 -3.441406 16.949219 -5.042969 Z M 16.949219 -5.042969 "/></g></g></g><g fill="#7ed957" fill-opacity="1"><g transform="translate(321.261511, 104.075016)"><g><path d="M 3.515625 0 L 3.515625 -16.488281 L 1.820312 -16.488281 L 1.820312 0 Z M 3.515625 0 "/></g></g></g><g fill="#7ed957" fill-opacity="1"><g transform="translate(329.505651, 104.075016)"><g><path d="M 16.34375 -8.292969 C 16.34375 -6.402344 15.664062 -4.800781 14.355469 -3.492188 C 13.019531 -2.15625 11.421875 -1.503906 9.554688 -1.503906 C 7.6875 -1.503906 6.085938 -2.15625 4.777344 -3.492188 C 3.441406 -4.800781 2.789062 -6.402344 2.789062 -8.292969 C 2.789062 -10.136719 3.441406 -11.734375 4.777344 -13.070312 C 6.085938 -14.378906 7.6875 -15.058594 9.554688 -15.058594 C 11.421875 -15.058594 13.019531 -14.378906 14.355469 -13.070312 C 15.664062 -11.734375 16.34375 -10.136719 16.34375 -8.292969 Z M 18.039062 -8.292969 C 18.039062 -9.457031 17.796875 -10.546875 17.359375 -11.589844 C 16.925781 -12.609375 16.320312 -13.503906 15.542969 -14.28125 C 14.765625 -15.035156 13.871094 -15.640625 12.851562 -16.074219 C 11.808594 -16.511719 10.71875 -16.753906 9.554688 -16.753906 C 8.390625 -16.753906 7.273438 -16.511719 6.253906 -16.074219 C 5.238281 -15.640625 4.339844 -15.035156 3.5625 -14.28125 C 2.789062 -13.503906 2.183594 -12.609375 1.746094 -11.589844 C 1.308594 -10.546875 1.089844 -9.457031 1.089844 -8.292969 C 1.089844 -7.128906 1.308594 -6.011719 1.746094 -4.996094 C 2.183594 -3.953125 2.789062 -3.054688 3.5625 -2.277344 C 4.339844 -1.503906 5.238281 -0.898438 6.253906 -0.460938 C 7.273438 -0.0234375 8.390625 0.195312 9.554688 0.195312 C 10.71875 0.195312 11.808594 -0.0234375 12.851562 -0.460938 C 13.871094 -0.898438 14.765625 -1.503906 15.542969 -2.277344 C 16.320312 -3.054688 16.925781 -3.953125 17.359375 -4.996094 C 17.796875 -6.011719 18.039062 -7.128906 18.039062 -8.292969 Z M 18.039062 -8.292969 "/></g></g></g><g fill="#7ed957" fill-opacity="1"><g transform="translate(351.545827, 104.075016)"><g><path d="M 3.515625 -12.148438 L 12.777344 1.019531 L 12.777344 -16.488281 L 11.082031 -16.488281 L 11.082031 -4.363281 L 1.820312 -17.53125 L 1.820312 0 L 3.515625 0 Z M 3.515625 -12.148438 "/></g></g></g><g fill="#7ed957" fill-opacity="1"><g transform="translate(369.051967, 104.075016)"><g><path d="M 4.484375 -6.0625 L 7.492188 -13.652344 L 10.476562 -6.0625 Z M 14.71875 0 L 7.492188 -17.628906 L 0.242188 0 L 2.085938 0 L 3.855469 -4.484375 L 11.105469 -4.484375 L 12.875 0 Z M 14.71875 0 "/></g></g></g><g fill="#7ed957" fill-opacity="1"><g transform="translate(386.921802, 104.075016)"><g><path d="M 3.515625 -1.699219 L 3.515625 -16.488281 L 1.820312 -16.488281 L 1.820312 0 L 9.40625 0 L 9.40625 -1.699219 Z M 3.515625 -1.699219 "/></g></g></g><g fill="#7ed957" fill-opacity="1"><g transform="translate(399.724215, 104.075016)"><g/></g></g><g fill="#7ed957" fill-opacity="1"><g transform="translate(409.18065, 104.075016)"><g><path d="M 14.621094 -8.246094 C 14.621094 -9.433594 14.378906 -10.523438 13.941406 -11.542969 C 13.503906 -12.558594 12.898438 -13.433594 12.148438 -14.160156 C 11.371094 -14.886719 10.476562 -15.445312 9.457031 -15.859375 C 8.414062 -16.269531 7.296875 -16.488281 6.132812 -16.488281 L 1.820312 -16.488281 L 1.820312 0 L 6.132812 0 C 7.296875 0 8.414062 -0.195312 9.457031 -0.605469 C 10.476562 -1.019531 11.371094 -1.601562 12.148438 -2.328125 C 12.898438 -3.054688 13.503906 -3.902344 13.941406 -4.921875 C 14.378906 -5.941406 14.621094 -7.03125 14.621094 -8.246094 Z M 12.972656 -8.246094 C 12.972656 -6.351562 12.292969 -4.777344 10.984375 -3.539062 C 9.675781 -2.304688 8.074219 -1.699219 6.183594 -1.699219 L 3.515625 -1.699219 L 3.515625 -14.789062 L 6.183594 -14.789062 C 8.074219 -14.789062 9.675781 -14.160156 10.984375 -12.949219 C 12.292969 -11.6875 12.972656 -10.109375 12.972656 -8.246094 Z M 12.972656 -8.246094 "/></g></g></g><g fill="#7ed957" fill-opacity="1"><g transform="translate(427.802109, 104.075016)"><g><path d="M 11.613281 0 L 11.613281 -1.574219 L 3.515625 -1.574219 L 3.515625 -7.445312 L 11.371094 -7.445312 L 11.371094 -9.042969 L 3.515625 -9.042969 L 3.515625 -14.914062 L 11.613281 -14.914062 L 11.613281 -16.488281 L 1.820312 -16.488281 L 1.820312 0 Z M 11.613281 0 "/></g></g></g><g fill="#7ed957" fill-opacity="1"><g transform="translate(444.144455, 104.075016)"><g/></g></g><g fill="#7ed957" fill-opacity="1"><g transform="translate(453.60089, 104.075016)"><g><path d="M 16.949219 -5.042969 L 15.082031 -5.042969 C 14.5 -3.976562 13.699219 -3.105469 12.679688 -2.472656 C 11.664062 -1.820312 10.523438 -1.503906 9.3125 -1.503906 C 7.492188 -1.503906 5.941406 -2.15625 4.65625 -3.515625 C 3.394531 -4.800781 2.789062 -6.378906 2.789062 -8.21875 C 2.789062 -10.0625 3.394531 -11.640625 4.65625 -12.949219 C 5.238281 -13.554688 5.941406 -14.039062 6.742188 -14.402344 C 7.515625 -14.765625 8.292969 -14.960938 9.070312 -14.960938 C 9.820312 -14.960938 10.476562 -14.863281 11.058594 -14.695312 C 12.828125 -14.160156 14.160156 -13.09375 15.058594 -11.46875 L 16.925781 -11.46875 C 16.292969 -13.019531 15.300781 -14.28125 13.917969 -15.25 C 12.511719 -16.222656 10.984375 -16.707031 9.3125 -16.707031 C 7.007812 -16.707031 5.066406 -15.859375 3.46875 -14.183594 C 2.714844 -13.410156 2.132812 -12.488281 1.722656 -11.46875 C 1.285156 -10.449219 1.089844 -9.359375 1.089844 -8.21875 C 1.089844 -5.890625 1.867188 -3.929688 3.46875 -2.277344 C 5.066406 -0.582031 7.007812 0.242188 9.3125 0.242188 C 10.984375 0.242188 12.511719 -0.242188 13.941406 -1.210938 C 15.324219 -2.183594 16.320312 -3.441406 16.949219 -5.042969 Z M 16.949219 -5.042969 "/></g></g></g><g fill="#7ed957" fill-opacity="1"><g transform="translate(474.186293, 104.075016)"><g><path d="M 16.34375 -8.292969 C 16.34375 -6.402344 15.664062 -4.800781 14.355469 -3.492188 C 13.019531 -2.15625 11.421875 -1.503906 9.554688 -1.503906 C 7.6875 -1.503906 6.085938 -2.15625 4.777344 -3.492188 C 3.441406 -4.800781 2.789062 -6.402344 2.789062 -8.292969 C 2.789062 -10.136719 3.441406 -11.734375 4.777344 -13.070312 C 6.085938 -14.378906 7.6875 -15.058594 9.554688 -15.058594 C 11.421875 -15.058594 13.019531 -14.378906 14.355469 -13.070312 C 15.664062 -11.734375 16.34375 -10.136719 16.34375 -8.292969 Z M 18.039062 -8.292969 C 18.039062 -9.457031 17.796875 -10.546875 17.359375 -11.589844 C 16.925781 -12.609375 16.320312 -13.503906 15.542969 -14.28125 C 14.765625 -15.035156 13.871094 -15.640625 12.851562 -16.074219 C 11.808594 -16.511719 10.71875 -16.753906 9.554688 -16.753906 C 8.390625 -16.753906 7.273438 -16.511719 6.253906 -16.074219 C 5.238281 -15.640625 4.339844 -15.035156 3.5625 -14.28125 C 2.789062 -13.503906 2.183594 -12.609375 1.746094 -11.589844 C 1.308594 -10.546875 1.089844 -9.457031 1.089844 -8.292969 C 1.089844 -7.128906 1.308594 -6.011719 1.746094 -4.996094 C 2.183594 -3.953125 2.789062 -3.054688 3.5625 -2.277344 C 4.339844 -1.503906 5.238281 -0.898438 6.253906 -0.460938 C 7.273438 -0.0234375 8.390625 0.195312 9.554688 0.195312 C 10.71875 0.195312 11.808594 -0.0234375 12.851562 -0.460938 C 13.871094 -0.898438 14.765625 -1.503906 15.542969 -2.277344 C 16.320312 -3.054688 16.925781 -3.953125 17.359375 -4.996094 C 17.796875 -6.011719 18.039062 -7.128906 18.039062 -8.292969 Z M 18.039062 -8.292969 "/></g></g></g><g fill="#7ed957" fill-opacity="1"><g transform="translate(496.226468, 104.075016)"><g><path d="M 3.515625 -8.148438 L 3.515625 -14.863281 L 7.347656 -14.863281 C 8.339844 -14.863281 9.140625 -14.546875 9.746094 -13.917969 C 10.328125 -13.289062 10.644531 -12.511719 10.644531 -11.542969 C 10.644531 -10.570312 10.328125 -9.773438 9.699219 -9.117188 C 9.070312 -8.460938 8.292969 -8.148438 7.347656 -8.148438 Z M 12.34375 -11.515625 C 12.34375 -12.925781 11.808594 -14.136719 10.789062 -15.082031 C 9.796875 -16.003906 8.558594 -16.488281 7.105469 -16.488281 L 1.820312 -16.488281 L 1.820312 0 L 3.515625 0 L 3.515625 -6.523438 L 5.480469 -6.523438 L 10.328125 0 L 12.609375 0 L 7.515625 -6.523438 C 8.800781 -6.59375 9.894531 -7.054688 10.789062 -7.90625 C 11.808594 -8.851562 12.34375 -10.0625 12.34375 -11.515625 Z M 12.34375 -11.515625 "/></g></g></g><g fill="#7ed957" fill-opacity="1"><g transform="translate(512.326337, 104.075016)"><g><path d="M 14.621094 -8.246094 C 14.621094 -9.433594 14.378906 -10.523438 13.941406 -11.542969 C 13.503906 -12.558594 12.898438 -13.433594 12.148438 -14.160156 C 11.371094 -14.886719 10.476562 -15.445312 9.457031 -15.859375 C 8.414062 -16.269531 7.296875 -16.488281 6.132812 -16.488281 L 1.820312 -16.488281 L 1.820312 0 L 6.132812 0 C 7.296875 0 8.414062 -0.195312 9.457031 -0.605469 C 10.476562 -1.019531 11.371094 -1.601562 12.148438 -2.328125 C 12.898438 -3.054688 13.503906 -3.902344 13.941406 -4.921875 C 14.378906 -5.941406 14.621094 -7.03125 14.621094 -8.246094 Z M 12.972656 -8.246094 C 12.972656 -6.351562 12.292969 -4.777344 10.984375 -3.539062 C 9.675781 -2.304688 8.074219 -1.699219 6.183594 -1.699219 L 3.515625 -1.699219 L 3.515625 -14.789062 L 6.183594 -14.789062 C 8.074219 -14.789062 9.675781 -14.160156 10.984375 -12.949219 C 12.292969 -11.6875 12.972656 -10.109375 12.972656 -8.246094 Z M 12.972656 -8.246094 "/></g></g></g><g fill="#7ed957" fill-opacity="1"><g transform="translate(530.947795, 104.075016)"><g><path d="M 16.34375 -8.292969 C 16.34375 -6.402344 15.664062 -4.800781 14.355469 -3.492188 C 13.019531 -2.15625 11.421875 -1.503906 9.554688 -1.503906 C 7.6875 -1.503906 6.085938 -2.15625 4.777344 -3.492188 C 3.441406 -4.800781 2.789062 -6.402344 2.789062 -8.292969 C 2.789062 -10.136719 3.441406 -11.734375 4.777344 -13.070312 C 6.085938 -14.378906 7.6875 -15.058594 9.554688 -15.058594 C 11.421875 -15.058594 13.019531 -14.378906 14.355469 -13.070312 C 15.664062 -11.734375 16.34375 -10.136719 16.34375 -8.292969 Z M 18.039062 -8.292969 C 18.039062 -9.457031 17.796875 -10.546875 17.359375 -11.589844 C 16.925781 -12.609375 16.320312 -13.503906 15.542969 -14.28125 C 14.765625 -15.035156 13.871094 -15.640625 12.851562 -16.074219 C 11.808594 -16.511719 10.71875 -16.753906 9.554688 -16.753906 C 8.390625 -16.753906 7.273438 -16.511719 6.253906 -16.074219 C 5.238281 -15.640625 4.339844 -15.035156 3.5625 -14.28125 C 2.789062 -13.503906 2.183594 -12.609375 1.746094 -11.589844 C 1.308594 -10.546875 1.089844 -9.457031 1.089844 -8.292969 C 1.089844 -7.128906 1.308594 -6.011719 1.746094 -4.996094 C 2.183594 -3.953125 2.789062 -3.054688 3.5625 -2.277344 C 4.339844 -1.503906 5.238281 -0.898438 6.253906 -0.460938 C 7.273438 -0.0234375 8.390625 0.195312 9.554688 0.195312 C 10.71875 0.195312 11.808594 -0.0234375 12.851562 -0.460938 C 13.871094 -0.898438 14.765625 -1.503906 15.542969 -2.277344 C 16.320312 -3.054688 16.925781 -3.953125 17.359375 -4.996094 C 17.796875 -6.011719 18.039062 -7.128906 18.039062 -8.292969 Z M 18.039062 -8.292969 "/></g></g></g><g fill="#7ed957" fill-opacity="1"><g transform="translate(552.987971, 104.075016)"><g><path d="M 12.585938 -4.582031 C 12.585938 -5.746094 12.292969 -6.742188 11.734375 -7.515625 C 11.152344 -8.292969 10.378906 -8.824219 9.433594 -9.09375 C 9.988281 -9.335938 10.476562 -9.773438 10.839844 -10.425781 C 11.007812 -10.71875 11.128906 -11.007812 11.226562 -11.324219 C 11.324219 -11.640625 11.371094 -12.074219 11.371094 -12.632812 C 11.371094 -13.167969 11.226562 -13.722656 10.984375 -14.257812 C 10.257812 -15.738281 8.679688 -16.488281 6.28125 -16.488281 L 1.820312 -16.488281 L 1.820312 0 L 6.863281 0 C 8.535156 0 9.867188 -0.363281 10.886719 -1.140625 C 11.394531 -1.527344 11.808594 -2.035156 12.125 -2.667969 C 12.414062 -3.273438 12.585938 -3.902344 12.585938 -4.582031 Z M 9.675781 -12.367188 C 9.675781 -11.46875 9.40625 -10.8125 8.875 -10.378906 C 8.339844 -9.941406 7.636719 -9.722656 6.765625 -9.722656 L 3.515625 -9.722656 L 3.515625 -14.863281 L 6.28125 -14.863281 C 8.535156 -14.863281 9.675781 -14.015625 9.675781 -12.367188 Z M 10.886719 -4.921875 C 10.886719 -3.929688 10.546875 -3.128906 9.867188 -2.523438 C 9.214844 -1.914062 8.367188 -1.625 7.347656 -1.625 L 3.515625 -1.625 L 3.515625 -8.027344 L 7.613281 -8.027344 C 8.460938 -8.027344 9.214844 -7.734375 9.867188 -7.152344 C 10.160156 -6.886719 10.402344 -6.570312 10.597656 -6.207031 C 10.789062 -5.820312 10.886719 -5.40625 10.886719 -4.921875 Z M 10.886719 -4.921875 "/></g></g></g><g fill="#7ed957" fill-opacity="1"><g transform="translate(568.966623, 104.075016)"><g><path d="M 4.484375 -6.0625 L 7.492188 -13.652344 L 10.476562 -6.0625 Z M 14.71875 0 L 7.492188 -17.628906 L 0.242188 0 L 2.085938 0 L 3.855469 -4.484375 L 11.105469 -4.484375 L 12.875 0 Z M 14.71875 0 "/></g></g></g><g clip-path="url(#id1)"><path fill="#7ed957" d="M 1326.265625 663.992188 L 1009.492188 663.992188 C 991.582031 663.992188 977.011719 678.628906 977.011719 696.617188 C 977.011719 714.609375 991.582031 729.242188 1009.492188 729.242188 L 1326.265625 729.242188 C 1344.175781 729.242188 1358.746094 714.609375 1358.746094 696.617188 C 1358.746094 678.628906 1344.175781 663.992188 1326.265625 663.992188 M 1326.265625 728.390625 L 1009.492188 728.390625 C 992.050781 728.390625 977.863281 714.136719 977.863281 696.617188 C 977.863281 679.097656 992.050781 664.847656 1009.492188 664.847656 L 1326.265625 664.847656 C 1343.707031 664.847656 1357.894531 679.097656 1357.894531 696.617188 C 1357.894531 714.136719 1343.707031 728.390625 1326.265625 728.390625 " fill-opacity="1" fill-rule="nonzero"/></g><g fill="#f4f0e6" fill-opacity="1"><g transform="translate(1119.82178, 707.446736)"><g><path d="M 4.625 -6.25 L 7.722656 -14.074219 L 10.800781 -6.25 Z M 15.171875 0 L 7.722656 -18.171875 L 0.25 0 L 2.148438 0 L 3.972656 -4.625 L 11.449219 -4.625 L 13.273438 0 Z M 15.171875 0 "/></g></g></g><g fill="#f4f0e6" fill-opacity="1"><g transform="translate(1136.244341, 707.446736)"><g><path d="M 3.625 6.25 L 3.625 -1.875 C 3.699219 -1.726562 3.824219 -1.601562 3.925781 -1.5 C 4.972656 -0.324219 6.25 0.25 7.773438 0.25 C 9.273438 0.25 10.550781 -0.324219 11.597656 -1.5 C 12.597656 -2.625 13.125 -3.949219 13.125 -5.5 C 13.125 -7.023438 12.597656 -8.347656 11.597656 -9.5 C 10.550781 -10.648438 9.273438 -11.25 7.773438 -11.25 C 6.25 -11.25 4.972656 -10.648438 3.925781 -9.5 C 3.824219 -9.375 3.699219 -9.25 3.625 -9.097656 L 3.625 -11 L 1.875 -11 L 1.875 6.25 Z M 11.375 -5.5 C 11.375 -4.425781 11 -3.476562 10.25 -2.699219 C 9.5 -1.898438 8.574219 -1.5 7.5 -1.5 C 6.398438 -1.5 5.472656 -1.898438 4.722656 -2.699219 C 3.972656 -3.476562 3.625 -4.425781 3.625 -5.5 C 3.625 -6.550781 3.972656 -7.5 4.722656 -8.300781 C 5.472656 -9.097656 6.398438 -9.5 7.5 -9.5 C 8.574219 -9.5 9.5 -9.097656 10.25 -8.300781 C 11 -7.5 11.375 -6.550781 11.375 -5.5 Z M 11.375 -5.5 "/></g></g></g><g fill="#f4f0e6" fill-opacity="1"><g transform="translate(1151.492084, 707.446736)"><g><path d="M 3.625 6.25 L 3.625 -1.875 C 3.699219 -1.726562 3.824219 -1.601562 3.925781 -1.5 C 4.972656 -0.324219 6.25 0.25 7.773438 0.25 C 9.273438 0.25 10.550781 -0.324219 11.597656 -1.5 C 12.597656 -2.625 13.125 -3.949219 13.125 -5.5 C 13.125 -7.023438 12.597656 -8.347656 11.597656 -9.5 C 10.550781 -10.648438 9.273438 -11.25 7.773438 -11.25 C 6.25 -11.25 4.972656 -10.648438 3.925781 -9.5 C 3.824219 -9.375 3.699219 -9.25 3.625 -9.097656 L 3.625 -11 L 1.875 -11 L 1.875 6.25 Z M 11.375 -5.5 C 11.375 -4.425781 11 -3.476562 10.25 -2.699219 C 9.5 -1.898438 8.574219 -1.5 7.5 -1.5 C 6.398438 -1.5 5.472656 -1.898438 4.722656 -2.699219 C 3.972656 -3.476562 3.625 -4.425781 3.625 -5.5 C 3.625 -6.550781 3.972656 -7.5 4.722656 -8.300781 C 5.472656 -9.097656 6.398438 -9.5 7.5 -9.5 C 8.574219 -9.5 9.5 -9.097656 10.25 -8.300781 C 11 -7.5 11.375 -6.550781 11.375 -5.5 Z M 11.375 -5.5 "/></g></g></g><g fill="#f4f0e6" fill-opacity="1"><g transform="translate(1166.739828, 707.446736)"><g><path d="M 15.375 1.375 L 19.324219 -17 L 17.546875 -17 L 14.898438 -4.648438 L 9.800781 -18 L 4.675781 -4.648438 L 2.050781 -17 L 0.25 -17 L 4.222656 1.375 L 9.800781 -13.421875 Z M 15.375 1.375 "/></g></g></g><g fill="#f4f0e6" fill-opacity="1"><g transform="translate(1187.311729, 707.446736)"><g><path d="M 12.625 -5.75 C 12.625 -7.25 12.023438 -8.550781 10.875 -9.675781 C 9.75 -10.75 8.398438 -11.300781 6.875 -11.300781 C 5.273438 -11.300781 3.925781 -10.722656 2.800781 -9.597656 C 1.675781 -8.472656 1.125 -7.125 1.125 -5.550781 C 1.125 -3.949219 1.675781 -2.601562 2.800781 -1.5 C 3.324219 -0.976562 3.925781 -0.574219 4.625 -0.273438 C 5.324219 0.0234375 6.148438 0.175781 7.125 0.175781 C 8.097656 0.175781 9.050781 -0.125 10 -0.726562 C 10.949219 -1.324219 11.648438 -2.175781 12.125 -3.226562 L 10.125 -3.226562 C 9.722656 -2.699219 9.25 -2.300781 8.675781 -2 C 8.097656 -1.699219 7.5 -1.574219 6.875 -1.574219 C 5.925781 -1.574219 5.074219 -1.875 4.324219 -2.5 C 3.574219 -3.101562 3.101562 -3.875 2.949219 -4.824219 L 12.625 -4.824219 Z M 10.773438 -6.324219 L 2.976562 -6.324219 C 3.074219 -6.773438 3.25 -7.199219 3.5 -7.597656 C 4.300781 -8.898438 5.425781 -9.550781 6.875 -9.550781 C 7.800781 -9.550781 8.625 -9.25 9.347656 -8.648438 C 10.097656 -8.023438 10.550781 -7.25 10.773438 -6.324219 Z M 10.773438 -6.324219 "/></g></g></g><g fill="#f4f0e6" fill-opacity="1"><g transform="translate(1201.934566, 707.446736)"><g><path d="M 3.625 0 L 3.625 -1.875 C 3.699219 -1.726562 3.824219 -1.601562 3.925781 -1.5 C 4.972656 -0.324219 6.25 0.25 7.773438 0.25 C 9.273438 0.25 10.550781 -0.324219 11.597656 -1.5 C 12.597656 -2.625 13.125 -3.949219 13.125 -5.5 C 13.125 -7.023438 12.597656 -8.347656 11.597656 -9.5 C 10.550781 -10.648438 9.273438 -11.25 7.773438 -11.25 C 6.25 -11.25 4.972656 -10.648438 3.925781 -9.5 C 3.824219 -9.375 3.699219 -9.25 3.625 -9.097656 L 3.625 -18.75 L 1.875 -18.75 L 1.875 0 Z M 11.375 -5.5 C 11.375 -4.425781 11 -3.476562 10.25 -2.699219 C 9.5 -1.898438 8.574219 -1.5 7.5 -1.5 C 6.398438 -1.5 5.472656 -1.898438 4.722656 -2.699219 C 3.972656 -3.476562 3.625 -4.425781 3.625 -5.5 C 3.625 -6.550781 3.972656 -7.5 4.722656 -8.300781 C 5.472656 -9.097656 6.398438 -9.5 7.5 -9.5 C 8.574219 -9.5 9.5 -9.097656 10.25 -8.300781 C 11 -7.5 11.375 -6.550781 11.375 -5.5 Z M 11.375 -5.5 "/></g></g></g><path stroke-linecap="butt" transform="matrix(0.000000000000000046, 0.749735, -0.75, 0.000000000000000046, 1168.747459, 0.00455186)" fill="none" stroke-linejoin="miter" d="M -0.000861117 0.0018209 L 885.32214 0.0018209 " stroke="#7ed957" stroke-width="1" stroke-opacity="1" stroke-miterlimit="4"/><path stroke-linecap="butt" transform="matrix(0.000000000000000046, 0.750825, -0.75, 0.000000000000000046, 1168.749211, 729.002743)" fill="none" stroke-linejoin="miter" d="M 0.00154886 -0.00105143 L 127.866133 -0.00105143 " stroke="#7ed957" stroke-width="1" stroke-opacity="1" stroke-miterlimit="4"/><g fill="#ffffff" fill-opacity="1"><g transform="translate(81.011721, 487.836091)"><g><path d="M 15.125 -8.5625 L 5.265625 -8.5625 L 1.875 0 L 0 0 L 9.765625 -24.375 L 10.84375 -24.375 L 20.40625 0 L 18.5 0 Z M 5.875 -10.09375 L 14.5625 -10.09375 L 11.25 -18.84375 C 10.976562 -19.53125 10.648438 -20.484375 10.265625 -21.703125 C 9.960938 -20.640625 9.632812 -19.675781 9.28125 -18.8125 Z M 5.875 -10.09375 "/></g></g></g><g fill="#ffffff" fill-opacity="1"><g transform="translate(101.412702, 487.836091)"><g><path d="M 7.78125 -1.125 C 8.820312 -1.125 9.734375 -1.210938 10.515625 -1.390625 L 10.515625 -0.0625 C 9.710938 0.195312 8.789062 0.328125 7.75 0.328125 C 6.15625 0.328125 4.976562 -0.09375 4.21875 -0.9375 C 3.46875 -1.789062 3.09375 -3.132812 3.09375 -4.96875 L 3.09375 -16.625 L 0.421875 -16.625 L 0.421875 -17.578125 L 3.09375 -18.328125 L 3.921875 -22.40625 L 4.765625 -22.40625 L 4.765625 -18.046875 L 10.0625 -18.046875 L 10.0625 -16.625 L 4.765625 -16.625 L 4.765625 -5.203125 C 4.765625 -3.816406 5.003906 -2.789062 5.484375 -2.125 C 5.972656 -1.457031 6.738281 -1.125 7.78125 -1.125 Z M 7.78125 -1.125 "/></g></g></g><g fill="#ffffff" fill-opacity="1"><g transform="translate(112.800064, 487.836091)"><g><path d="M 25.5625 0 L 25.5625 -11.84375 C 25.5625 -13.601562 25.21875 -14.882812 24.53125 -15.6875 C 23.851562 -16.5 22.804688 -16.90625 21.390625 -16.90625 C 19.535156 -16.90625 18.164062 -16.394531 17.28125 -15.375 C 16.394531 -14.351562 15.953125 -12.753906 15.953125 -10.578125 L 15.953125 0 L 14.28125 0 L 14.28125 -12.328125 C 14.28125 -15.378906 12.882812 -16.90625 10.09375 -16.90625 C 8.195312 -16.90625 6.816406 -16.351562 5.953125 -15.25 C 5.097656 -14.144531 4.671875 -12.382812 4.671875 -9.96875 L 4.671875 0 L 3.015625 0 L 3.015625 -18.046875 L 4.390625 -18.046875 L 4.734375 -15.578125 L 4.828125 -15.578125 C 5.328125 -16.472656 6.035156 -17.164062 6.953125 -17.65625 C 7.867188 -18.144531 8.882812 -18.390625 10 -18.390625 C 12.84375 -18.390625 14.664062 -17.320312 15.46875 -15.1875 L 15.546875 -15.1875 C 16.128906 -16.21875 16.914062 -17.007812 17.90625 -17.5625 C 18.894531 -18.113281 20.019531 -18.390625 21.28125 -18.390625 C 23.25 -18.390625 24.722656 -17.863281 25.703125 -16.8125 C 26.691406 -15.757812 27.1875 -14.085938 27.1875 -11.796875 L 27.1875 0 Z M 25.5625 0 "/></g></g></g><g fill="#ffffff" fill-opacity="1"><g transform="translate(142.812239, 487.836091)"><g><path d="M 17.953125 -9.046875 C 17.953125 -6.097656 17.234375 -3.796875 15.796875 -2.140625 C 14.367188 -0.492188 12.398438 0.328125 9.890625 0.328125 C 8.304688 0.328125 6.910156 -0.0507812 5.703125 -0.8125 C 4.503906 -1.570312 3.582031 -2.664062 2.9375 -4.09375 C 2.289062 -5.53125 1.96875 -7.179688 1.96875 -9.046875 C 1.96875 -11.992188 2.679688 -14.285156 4.109375 -15.921875 C 5.546875 -17.566406 7.507812 -18.390625 10 -18.390625 C 12.476562 -18.390625 14.421875 -17.554688 15.828125 -15.890625 C 17.242188 -14.222656 17.953125 -11.941406 17.953125 -9.046875 Z M 3.703125 -9.046875 C 3.703125 -6.566406 4.242188 -4.628906 5.328125 -3.234375 C 6.421875 -1.847656 7.96875 -1.15625 9.96875 -1.15625 C 11.957031 -1.15625 13.492188 -1.847656 14.578125 -3.234375 C 15.671875 -4.628906 16.21875 -6.566406 16.21875 -9.046875 C 16.21875 -11.535156 15.664062 -13.46875 14.5625 -14.84375 C 13.46875 -16.21875 11.921875 -16.90625 9.921875 -16.90625 C 7.929688 -16.90625 6.394531 -16.21875 5.3125 -14.84375 C 4.238281 -13.476562 3.703125 -11.546875 3.703125 -9.046875 Z M 3.703125 -9.046875 "/></g></g></g><g fill="#ffffff" fill-opacity="1"><g transform="translate(162.731824, 487.836091)"><g><path d="M 14.21875 -4.703125 C 14.21875 -3.085938 13.601562 -1.84375 12.375 -0.96875 C 11.144531 -0.101562 9.398438 0.328125 7.140625 0.328125 C 4.722656 0.328125 2.804688 -0.0390625 1.390625 -0.78125 L 1.390625 -2.5625 C 3.210938 -1.65625 5.128906 -1.203125 7.140625 -1.203125 C 8.921875 -1.203125 10.269531 -1.492188 11.1875 -2.078125 C 12.113281 -2.671875 12.578125 -3.460938 12.578125 -4.453125 C 12.578125 -5.359375 12.207031 -6.117188 11.46875 -6.734375 C 10.738281 -7.359375 9.535156 -7.96875 7.859375 -8.5625 C 6.046875 -9.21875 4.773438 -9.78125 4.046875 -10.25 C 3.316406 -10.71875 2.765625 -11.25 2.390625 -11.84375 C 2.023438 -12.4375 1.84375 -13.160156 1.84375 -14.015625 C 1.84375 -15.359375 2.410156 -16.421875 3.546875 -17.203125 C 4.679688 -17.992188 6.265625 -18.390625 8.296875 -18.390625 C 10.242188 -18.390625 12.09375 -18.023438 13.84375 -17.296875 L 13.234375 -15.8125 C 11.460938 -16.539062 9.816406 -16.90625 8.296875 -16.90625 C 6.828125 -16.90625 5.660156 -16.660156 4.796875 -16.171875 C 3.929688 -15.679688 3.5 -15.003906 3.5 -14.140625 C 3.5 -13.203125 3.832031 -12.453125 4.5 -11.890625 C 5.175781 -11.328125 6.488281 -10.695312 8.4375 -10 C 10.0625 -9.40625 11.242188 -8.875 11.984375 -8.40625 C 12.722656 -7.9375 13.28125 -7.398438 13.65625 -6.796875 C 14.03125 -6.203125 14.21875 -5.503906 14.21875 -4.703125 Z M 14.21875 -4.703125 "/></g></g></g><g fill="#ffffff" fill-opacity="1"><g transform="translate(178.567894, 487.836091)"><g><path d="M 10.734375 0.328125 C 7.960938 0.328125 5.941406 -0.710938 4.671875 -2.796875 L 4.546875 -2.796875 L 4.59375 -1.390625 C 4.644531 -0.578125 4.671875 0.316406 4.671875 1.296875 L 4.671875 8.171875 L 3.015625 8.171875 L 3.015625 -18.046875 L 4.421875 -18.046875 L 4.734375 -15.46875 L 4.828125 -15.46875 C 6.066406 -17.414062 8.050781 -18.390625 10.78125 -18.390625 C 13.207031 -18.390625 15.0625 -17.585938 16.34375 -15.984375 C 17.625 -14.390625 18.265625 -12.066406 18.265625 -9.015625 C 18.265625 -6.046875 17.59375 -3.742188 16.25 -2.109375 C 14.90625 -0.484375 13.066406 0.328125 10.734375 0.328125 Z M 10.703125 -1.125 C 12.554688 -1.125 13.988281 -1.8125 15 -3.1875 C 16.007812 -4.5625 16.515625 -6.484375 16.515625 -8.953125 C 16.515625 -14.253906 14.601562 -16.90625 10.78125 -16.90625 C 8.675781 -16.90625 7.128906 -16.328125 6.140625 -15.171875 C 5.160156 -14.015625 4.671875 -12.128906 4.671875 -9.515625 L 4.671875 -8.984375 C 4.671875 -6.160156 5.140625 -4.144531 6.078125 -2.9375 C 7.023438 -1.726562 8.566406 -1.125 10.703125 -1.125 Z M 10.703125 -1.125 "/></g></g></g><g fill="#ffffff" fill-opacity="1"><g transform="translate(198.802878, 487.836091)"><g><path d="M 15.609375 0 L 15.609375 -11.703125 C 15.609375 -13.515625 15.222656 -14.832031 14.453125 -15.65625 C 13.691406 -16.488281 12.507812 -16.90625 10.90625 -16.90625 C 8.75 -16.90625 7.171875 -16.359375 6.171875 -15.265625 C 5.171875 -14.171875 4.671875 -12.40625 4.671875 -9.96875 L 4.671875 0 L 3.015625 0 L 3.015625 -25.828125 L 4.671875 -25.828125 L 4.671875 -17.609375 L 4.578125 -15.3125 L 4.703125 -15.3125 C 5.378906 -16.394531 6.226562 -17.175781 7.25 -17.65625 C 8.28125 -18.144531 9.5625 -18.390625 11.09375 -18.390625 C 15.1875 -18.390625 17.234375 -16.191406 17.234375 -11.796875 L 17.234375 0 Z M 15.609375 0 "/></g></g></g><g fill="#ffffff" fill-opacity="1"><g transform="translate(218.85526, 487.836091)"><g><path d="M 10.3125 0.328125 C 7.6875 0.328125 5.640625 -0.476562 4.171875 -2.09375 C 2.703125 -3.707031 1.96875 -5.96875 1.96875 -8.875 C 1.96875 -11.757812 2.675781 -14.066406 4.09375 -15.796875 C 5.507812 -17.523438 7.421875 -18.390625 9.828125 -18.390625 C 11.953125 -18.390625 13.628906 -17.648438 14.859375 -16.171875 C 16.085938 -14.691406 16.703125 -12.675781 16.703125 -10.125 L 16.703125 -8.796875 L 3.703125 -8.796875 C 3.722656 -6.316406 4.300781 -4.421875 5.4375 -3.109375 C 6.570312 -1.804688 8.195312 -1.15625 10.3125 -1.15625 C 11.34375 -1.15625 12.242188 -1.226562 13.015625 -1.375 C 13.796875 -1.519531 14.785156 -1.832031 15.984375 -2.3125 L 15.984375 -0.8125 C 14.960938 -0.375 14.019531 -0.078125 13.15625 0.078125 C 12.300781 0.242188 11.351562 0.328125 10.3125 0.328125 Z M 9.828125 -16.9375 C 8.085938 -16.9375 6.691406 -16.363281 5.640625 -15.21875 C 4.585938 -14.070312 3.972656 -12.421875 3.796875 -10.265625 L 14.953125 -10.265625 C 14.953125 -12.347656 14.5 -13.976562 13.59375 -15.15625 C 12.6875 -16.34375 11.429688 -16.9375 9.828125 -16.9375 Z M 9.828125 -16.9375 "/></g></g></g><g fill="#ffffff" fill-opacity="1"><g transform="translate(237.513272, 487.836091)"><g><path d="M 10.125 -18.390625 C 10.882812 -18.390625 11.703125 -18.3125 12.578125 -18.15625 L 12.265625 -16.578125 C 11.515625 -16.773438 10.734375 -16.875 9.921875 -16.875 C 8.390625 -16.875 7.128906 -16.21875 6.140625 -14.90625 C 5.160156 -13.601562 4.671875 -11.957031 4.671875 -9.96875 L 4.671875 0 L 3.015625 0 L 3.015625 -18.046875 L 4.421875 -18.046875 L 4.578125 -14.796875 L 4.703125 -14.796875 C 5.441406 -16.117188 6.226562 -17.046875 7.0625 -17.578125 C 7.90625 -18.117188 8.925781 -18.390625 10.125 -18.390625 Z M 10.125 -18.390625 "/></g></g></g><g fill="#ffffff" fill-opacity="1"><g transform="translate(250.743202, 487.836091)"><g><path d="M 4.671875 0 L 3.015625 0 L 3.015625 -18.046875 L 4.671875 -18.046875 Z M 2.796875 -23.0625 C 2.796875 -24.125 3.140625 -24.65625 3.828125 -24.65625 C 4.171875 -24.65625 4.441406 -24.515625 4.640625 -24.234375 C 4.835938 -23.960938 4.9375 -23.570312 4.9375 -23.0625 C 4.9375 -22.5625 4.835938 -22.164062 4.640625 -21.875 C 4.441406 -21.59375 4.171875 -21.453125 3.828125 -21.453125 C 3.140625 -21.453125 2.796875 -21.988281 2.796875 -23.0625 Z M 2.796875 -23.0625 "/></g></g></g><g fill="#ffffff" fill-opacity="1"><g transform="translate(258.428848, 487.836091)"><g><path d="M 10.234375 0.328125 C 7.648438 0.328125 5.625 -0.484375 4.15625 -2.109375 C 2.695312 -3.734375 1.96875 -6.003906 1.96875 -8.921875 C 1.96875 -11.898438 2.726562 -14.222656 4.25 -15.890625 C 5.769531 -17.554688 7.84375 -18.390625 10.46875 -18.390625 C 12.03125 -18.390625 13.523438 -18.117188 14.953125 -17.578125 L 14.515625 -16.125 C 12.953125 -16.644531 11.59375 -16.90625 10.4375 -16.90625 C 8.226562 -16.90625 6.550781 -16.21875 5.40625 -14.84375 C 4.269531 -13.476562 3.703125 -11.515625 3.703125 -8.953125 C 3.703125 -6.515625 4.269531 -4.601562 5.40625 -3.21875 C 6.550781 -1.84375 8.144531 -1.15625 10.1875 -1.15625 C 11.832031 -1.15625 13.359375 -1.453125 14.765625 -2.046875 L 14.765625 -0.515625 C 13.609375 0.046875 12.097656 0.328125 10.234375 0.328125 Z M 10.234375 0.328125 "/></g></g></g><g fill="#ffffff" fill-opacity="1"><g transform="translate(274.580329, 487.836091)"><g/></g></g><g fill="#ffffff" fill-opacity="1"><g transform="translate(283.411345, 487.836091)"><g><path d="M 4.671875 0 L 3.015625 0 L 3.015625 -18.046875 L 4.671875 -18.046875 Z M 2.796875 -23.0625 C 2.796875 -24.125 3.140625 -24.65625 3.828125 -24.65625 C 4.171875 -24.65625 4.441406 -24.515625 4.640625 -24.234375 C 4.835938 -23.960938 4.9375 -23.570312 4.9375 -23.0625 C 4.9375 -22.5625 4.835938 -22.164062 4.640625 -21.875 C 4.441406 -21.59375 4.171875 -21.453125 3.828125 -21.453125 C 3.140625 -21.453125 2.796875 -21.988281 2.796875 -23.0625 Z M 2.796875 -23.0625 "/></g></g></g><g fill="#ffffff" fill-opacity="1"><g transform="translate(291.096991, 487.836091)"><g><path d="M 25.5625 0 L 25.5625 -11.84375 C 25.5625 -13.601562 25.21875 -14.882812 24.53125 -15.6875 C 23.851562 -16.5 22.804688 -16.90625 21.390625 -16.90625 C 19.535156 -16.90625 18.164062 -16.394531 17.28125 -15.375 C 16.394531 -14.351562 15.953125 -12.753906 15.953125 -10.578125 L 15.953125 0 L 14.28125 0 L 14.28125 -12.328125 C 14.28125 -15.378906 12.882812 -16.90625 10.09375 -16.90625 C 8.195312 -16.90625 6.816406 -16.351562 5.953125 -15.25 C 5.097656 -14.144531 4.671875 -12.382812 4.671875 -9.96875 L 4.671875 0 L 3.015625 0 L 3.015625 -18.046875 L 4.390625 -18.046875 L 4.734375 -15.578125 L 4.828125 -15.578125 C 5.328125 -16.472656 6.035156 -17.164062 6.953125 -17.65625 C 7.867188 -18.144531 8.882812 -18.390625 10 -18.390625 C 12.84375 -18.390625 14.664062 -17.320312 15.46875 -15.1875 L 15.546875 -15.1875 C 16.128906 -16.21875 16.914062 -17.007812 17.90625 -17.5625 C 18.894531 -18.113281 20.019531 -18.390625 21.28125 -18.390625 C 23.25 -18.390625 24.722656 -17.863281 25.703125 -16.8125 C 26.691406 -15.757812 27.1875 -14.085938 27.1875 -11.796875 L 27.1875 0 Z M 25.5625 0 "/></g></g></g><g fill="#ffffff" fill-opacity="1"><g transform="translate(321.109165, 487.836091)"><g><path d="M 10.734375 0.328125 C 7.960938 0.328125 5.941406 -0.710938 4.671875 -2.796875 L 4.546875 -2.796875 L 4.59375 -1.390625 C 4.644531 -0.578125 4.671875 0.316406 4.671875 1.296875 L 4.671875 8.171875 L 3.015625 8.171875 L 3.015625 -18.046875 L 4.421875 -18.046875 L 4.734375 -15.46875 L 4.828125 -15.46875 C 6.066406 -17.414062 8.050781 -18.390625 10.78125 -18.390625 C 13.207031 -18.390625 15.0625 -17.585938 16.34375 -15.984375 C 17.625 -14.390625 18.265625 -12.066406 18.265625 -9.015625 C 18.265625 -6.046875 17.59375 -3.742188 16.25 -2.109375 C 14.90625 -0.484375 13.066406 0.328125 10.734375 0.328125 Z M 10.703125 -1.125 C 12.554688 -1.125 13.988281 -1.8125 15 -3.1875 C 16.007812 -4.5625 16.515625 -6.484375 16.515625 -8.953125 C 16.515625 -14.253906 14.601562 -16.90625 10.78125 -16.90625 C 8.675781 -16.90625 7.128906 -16.328125 6.140625 -15.171875 C 5.160156 -14.015625 4.671875 -12.128906 4.671875 -9.515625 L 4.671875 -8.984375 C 4.671875 -6.160156 5.140625 -4.144531 6.078125 -2.9375 C 7.023438 -1.726562 8.566406 -1.125 10.703125 -1.125 Z M 10.703125 -1.125 "/></g></g></g><g fill="#ffffff" fill-opacity="1"><g transform="translate(341.344149, 487.836091)"><g><path d="M 4.671875 0 L 3.015625 0 L 3.015625 -25.828125 L 4.671875 -25.828125 Z M 4.671875 0 "/></g></g></g><g fill="#ffffff" fill-opacity="1"><g transform="translate(349.029795, 487.836091)"><g><path d="M 4.671875 0 L 3.015625 0 L 3.015625 -18.046875 L 4.671875 -18.046875 Z M 2.796875 -23.0625 C 2.796875 -24.125 3.140625 -24.65625 3.828125 -24.65625 C 4.171875 -24.65625 4.441406 -24.515625 4.640625 -24.234375 C 4.835938 -23.960938 4.9375 -23.570312 4.9375 -23.0625 C 4.9375 -22.5625 4.835938 -22.164062 4.640625 -21.875 C 4.441406 -21.59375 4.171875 -21.453125 3.828125 -21.453125 C 3.140625 -21.453125 2.796875 -21.988281 2.796875 -23.0625 Z M 2.796875 -23.0625 "/></g></g></g><g fill="#ffffff" fill-opacity="1"><g transform="translate(356.715441, 487.836091)"><g><path d="M 10.234375 0.328125 C 7.648438 0.328125 5.625 -0.484375 4.15625 -2.109375 C 2.695312 -3.734375 1.96875 -6.003906 1.96875 -8.921875 C 1.96875 -11.898438 2.726562 -14.222656 4.25 -15.890625 C 5.769531 -17.554688 7.84375 -18.390625 10.46875 -18.390625 C 12.03125 -18.390625 13.523438 -18.117188 14.953125 -17.578125 L 14.515625 -16.125 C 12.953125 -16.644531 11.59375 -16.90625 10.4375 -16.90625 C 8.226562 -16.90625 6.550781 -16.21875 5.40625 -14.84375 C 4.269531 -13.476562 3.703125 -11.515625 3.703125 -8.953125 C 3.703125 -6.515625 4.269531 -4.601562 5.40625 -3.21875 C 6.550781 -1.84375 8.144531 -1.15625 10.1875 -1.15625 C 11.832031 -1.15625 13.359375 -1.453125 14.765625 -2.046875 L 14.765625 -0.515625 C 13.609375 0.046875 12.097656 0.328125 10.234375 0.328125 Z M 10.234375 0.328125 "/></g></g></g><g fill="#ffffff" fill-opacity="1"><g transform="translate(372.866898, 487.836091)"><g><path d="M 13.984375 0 L 13.5625 -2.859375 L 13.4375 -2.859375 C 12.519531 -1.691406 11.582031 -0.867188 10.625 -0.390625 C 9.675781 0.0859375 8.546875 0.328125 7.234375 0.328125 C 5.460938 0.328125 4.082031 -0.125 3.09375 -1.03125 C 2.113281 -1.9375 1.625 -3.191406 1.625 -4.796875 C 1.625 -6.554688 2.359375 -7.921875 3.828125 -8.890625 C 5.296875 -9.867188 7.414062 -10.382812 10.1875 -10.4375 L 13.625 -10.546875 L 13.625 -11.734375 C 13.625 -13.453125 13.273438 -14.75 12.578125 -15.625 C 11.878906 -16.5 10.757812 -16.9375 9.21875 -16.9375 C 7.539062 -16.9375 5.804688 -16.472656 4.015625 -15.546875 L 3.40625 -16.96875 C 5.382812 -17.894531 7.34375 -18.359375 9.28125 -18.359375 C 11.257812 -18.359375 12.738281 -17.84375 13.71875 -16.8125 C 14.695312 -15.789062 15.1875 -14.1875 15.1875 -12 L 15.1875 0 Z M 7.34375 -1.15625 C 9.269531 -1.15625 10.785156 -1.707031 11.890625 -2.8125 C 13.003906 -3.914062 13.5625 -5.445312 13.5625 -7.40625 L 13.5625 -9.1875 L 10.40625 -9.046875 C 7.875 -8.921875 6.066406 -8.523438 4.984375 -7.859375 C 3.910156 -7.191406 3.375 -6.148438 3.375 -4.734375 C 3.375 -3.597656 3.71875 -2.71875 4.40625 -2.09375 C 5.101562 -1.46875 6.082031 -1.15625 7.34375 -1.15625 Z M 7.34375 -1.15625 "/></g></g></g><g fill="#ffffff" fill-opacity="1"><g transform="translate(390.877518, 487.836091)"><g><path d="M 7.78125 -1.125 C 8.820312 -1.125 9.734375 -1.210938 10.515625 -1.390625 L 10.515625 -0.0625 C 9.710938 0.195312 8.789062 0.328125 7.75 0.328125 C 6.15625 0.328125 4.976562 -0.09375 4.21875 -0.9375 C 3.46875 -1.789062 3.09375 -3.132812 3.09375 -4.96875 L 3.09375 -16.625 L 0.421875 -16.625 L 0.421875 -17.578125 L 3.09375 -18.328125 L 3.921875 -22.40625 L 4.765625 -22.40625 L 4.765625 -18.046875 L 10.0625 -18.046875 L 10.0625 -16.625 L 4.765625 -16.625 L 4.765625 -5.203125 C 4.765625 -3.816406 5.003906 -2.789062 5.484375 -2.125 C 5.972656 -1.457031 6.738281 -1.125 7.78125 -1.125 Z M 7.78125 -1.125 "/></g></g></g><g fill="#ffffff" fill-opacity="1"><g transform="translate(402.264892, 487.836091)"><g><path d="M 4.671875 0 L 3.015625 0 L 3.015625 -18.046875 L 4.671875 -18.046875 Z M 2.796875 -23.0625 C 2.796875 -24.125 3.140625 -24.65625 3.828125 -24.65625 C 4.171875 -24.65625 4.441406 -24.515625 4.640625 -24.234375 C 4.835938 -23.960938 4.9375 -23.570312 4.9375 -23.0625 C 4.9375 -22.5625 4.835938 -22.164062 4.640625 -21.875 C 4.441406 -21.59375 4.171875 -21.453125 3.828125 -21.453125 C 3.140625 -21.453125 2.796875 -21.988281 2.796875 -23.0625 Z M 2.796875 -23.0625 "/></g></g></g><g fill="#ffffff" fill-opacity="1"><g transform="translate(409.950538, 487.836091)"><g><path d="M 17.953125 -9.046875 C 17.953125 -6.097656 17.234375 -3.796875 15.796875 -2.140625 C 14.367188 -0.492188 12.398438 0.328125 9.890625 0.328125 C 8.304688 0.328125 6.910156 -0.0507812 5.703125 -0.8125 C 4.503906 -1.570312 3.582031 -2.664062 2.9375 -4.09375 C 2.289062 -5.53125 1.96875 -7.179688 1.96875 -9.046875 C 1.96875 -11.992188 2.679688 -14.285156 4.109375 -15.921875 C 5.546875 -17.566406 7.507812 -18.390625 10 -18.390625 C 12.476562 -18.390625 14.421875 -17.554688 15.828125 -15.890625 C 17.242188 -14.222656 17.953125 -11.941406 17.953125 -9.046875 Z M 3.703125 -9.046875 C 3.703125 -6.566406 4.242188 -4.628906 5.328125 -3.234375 C 6.421875 -1.847656 7.96875 -1.15625 9.96875 -1.15625 C 11.957031 -1.15625 13.492188 -1.847656 14.578125 -3.234375 C 15.671875 -4.628906 16.21875 -6.566406 16.21875 -9.046875 C 16.21875 -11.535156 15.664062 -13.46875 14.5625 -14.84375 C 13.46875 -16.21875 11.921875 -16.90625 9.921875 -16.90625 C 7.929688 -16.90625 6.394531 -16.21875 5.3125 -14.84375 C 4.238281 -13.476562 3.703125 -11.546875 3.703125 -9.046875 Z M 3.703125 -9.046875 "/></g></g></g><g fill="#ffffff" fill-opacity="1"><g transform="translate(429.870123, 487.836091)"><g><path d="M 15.609375 0 L 15.609375 -11.703125 C 15.609375 -13.515625 15.222656 -14.832031 14.453125 -15.65625 C 13.691406 -16.488281 12.507812 -16.90625 10.90625 -16.90625 C 8.75 -16.90625 7.171875 -16.359375 6.171875 -15.265625 C 5.171875 -14.171875 4.671875 -12.40625 4.671875 -9.96875 L 4.671875 0 L 3.015625 0 L 3.015625 -18.046875 L 4.421875 -18.046875 L 4.734375 -15.578125 L 4.828125 -15.578125 C 6.003906 -17.453125 8.09375 -18.390625 11.09375 -18.390625 C 15.1875 -18.390625 17.234375 -16.191406 17.234375 -11.796875 L 17.234375 0 Z M 15.609375 0 "/></g></g></g><g fill="#ffffff" fill-opacity="1"><g transform="translate(449.922505, 487.836091)"><g><path d="M 14.21875 -4.703125 C 14.21875 -3.085938 13.601562 -1.84375 12.375 -0.96875 C 11.144531 -0.101562 9.398438 0.328125 7.140625 0.328125 C 4.722656 0.328125 2.804688 -0.0390625 1.390625 -0.78125 L 1.390625 -2.5625 C 3.210938 -1.65625 5.128906 -1.203125 7.140625 -1.203125 C 8.921875 -1.203125 10.269531 -1.492188 11.1875 -2.078125 C 12.113281 -2.671875 12.578125 -3.460938 12.578125 -4.453125 C 12.578125 -5.359375 12.207031 -6.117188 11.46875 -6.734375 C 10.738281 -7.359375 9.535156 -7.96875 7.859375 -8.5625 C 6.046875 -9.21875 4.773438 -9.78125 4.046875 -10.25 C 3.316406 -10.71875 2.765625 -11.25 2.390625 -11.84375 C 2.023438 -12.4375 1.84375 -13.160156 1.84375 -14.015625 C 1.84375 -15.359375 2.410156 -16.421875 3.546875 -17.203125 C 4.679688 -17.992188 6.265625 -18.390625 8.296875 -18.390625 C 10.242188 -18.390625 12.09375 -18.023438 13.84375 -17.296875 L 13.234375 -15.8125 C 11.460938 -16.539062 9.816406 -16.90625 8.296875 -16.90625 C 6.828125 -16.90625 5.660156 -16.660156 4.796875 -16.171875 C 3.929688 -15.679688 3.5 -15.003906 3.5 -14.140625 C 3.5 -13.203125 3.832031 -12.453125 4.5 -11.890625 C 5.175781 -11.328125 6.488281 -10.695312 8.4375 -10 C 10.0625 -9.40625 11.242188 -8.875 11.984375 -8.40625 C 12.722656 -7.9375 13.28125 -7.398438 13.65625 -6.796875 C 14.03125 -6.203125 14.21875 -5.503906 14.21875 -4.703125 Z M 14.21875 -4.703125 "/></g></g></g></svg>